<svg width="17" height="13" viewBox="0 0 17 13" fill="none" xmlns="http://www.w3.org/2000/svg">
<path d="M1.49414 0.676498H15.5059C16.3297 0.676498 17 1.34677 17 2.17064V10.8294C17 11.6533 16.3297 12.3236 15.5059 12.3236H1.49414C0.670271 12.3236 0 11.6533 0 10.8294V2.17064C0 1.34677 0.670271 0.676498 1.49414 0.676498ZM1.68914 1.67259L1.88856 1.83864L7.90719 6.85035C8.25071 7.13637 8.74936 7.13637 9.09281 6.85035L15.1114 1.83864L15.3109 1.67259H1.68914ZM16.0039 2.39171L11.1001 6.47513L16.0039 9.73876V2.39171ZM1.49414 11.3275H15.5059C15.7465 11.3275 15.9478 11.1559 15.9939 10.9287L10.3014 7.14015L9.73018 7.61582C9.37377 7.91259 8.93685 8.06097 8.49997 8.06097C8.06308 8.06097 7.62619 7.91259 7.26976 7.61582L6.69853 7.14015L1.00605 10.9286C1.05221 11.1559 1.25348 11.3275 1.49414 11.3275ZM0.996094 9.73876L5.89993 6.47516L0.996094 2.39171V9.73876Z" fill="#000842"/>
</svg>
